<?xml version="1.0" encoding="UTF-8" standalone="no"?>
<svg
   xmlns:dc="http://purl.org/dc/elements/1.1/"
   xmlns:cc="http://creativecommons.org/ns#"
   xmlns:rdf="http://www.w3.org/1999/02/22-rdf-syntax-ns#"
   xmlns:svg="http://www.w3.org/2000/svg"
   xmlns="http://www.w3.org/2000/svg"
   xmlns:sodipodi="http://sodipodi.sourceforge.net/DTD/sodipodi-0.dtd"
   xmlns:inkscape="http://www.inkscape.org/namespaces/inkscape"
   id="Layer_1"
   version="1.1"
   viewBox="0 0 105 107"
   xml:space="preserve"
   sodipodi:docname="iconfinder_user_5925654.svg"
   width="105"
   height="107"
   inkscape:version="0.92.4 (5da689c313, 2019-01-14)"><metadata
     id="metadata16"><rdf:RDF><cc:Work
         rdf:about=""><dc:format>image/svg+xml</dc:format><dc:type
           rdf:resource="http://purl.org/dc/dcmitype/StillImage" /><dc:title></dc:title></cc:Work></rdf:RDF></metadata><defs
     id="defs14" /><sodipodi:namedview
     pagecolor="#ffffff"
     bordercolor="#666666"
     borderopacity="1"
     objecttolerance="10"
     gridtolerance="10"
     guidetolerance="10"
     inkscape:pageopacity="0"
     inkscape:pageshadow="2"
     inkscape:window-width="1287"
     inkscape:window-height="937"
     id="namedview12"
     showgrid="false"
     inkscape:pagecheckerboard="true"
     inkscape:zoom="5.2149125"
     inkscape:cx="50.403408"
     inkscape:cy="47.815962"
     inkscape:window-x="0"
     inkscape:window-y="0"
     inkscape:window-maximized="0"
     inkscape:current-layer="Layer_1" /><g
     id="XMLID_277_"
     transform="matrix(0.11524551,0,0,0.11524551,-1.438812,-5.511773)"
     style="fill:#ffffff"><path
       d="m 254.1,289.8 c 0,-117.1 95.3,-212.4 212.4,-212.4 117.1,0 212.4,95.3 212.4,212.4 0,117.1 -95.3,212.4 -212.4,212.4 -117.1,0 -212.4,-95.3 -212.4,-212.4 z"
       id="XMLID_304_"
       inkscape:connector-curvature="0"
       style="fill:#ffffff" /><path
       d="m 835.7,755.6 v 159.2 c 0,17.6 -14.3,31.9 -31.9,31.9 H 129.2 c -17.6,0 -31.9,-14.3 -31.9,-31.9 V 755.6 c 0,-59.3 23.1,-115.1 65,-157.1 42,-42 97.7,-65.1 157.1,-65.2 h 4 l 3.5,2 c 42.3,24.1 90.6,36.9 139.6,36.9 49,0 97.3,-12.8 139.6,-36.9 l 3.5,-2 h 4 c 59.3,0 115.1,23.2 157.1,65.2 41.9,42 65,97.8 65,157.1 z"
       id="XMLID_279_"
       inkscape:connector-curvature="0"
       style="fill:#ffffff" /></g><g
     id="XMLID_1_"
     transform="matrix(0.11524551,0,0,0.11524551,-1.438812,-5.511773)"
     style="fill:#ffffff" /><g
     id="XMLID_2_"
     transform="matrix(0.11524551,0,0,0.11524551,-1.438812,-5.511773)"
     style="fill:#ffffff" /><g
     id="XMLID_3_"
     transform="matrix(0.11524551,0,0,0.11524551,-1.438812,-5.511773)"
     style="fill:#ffffff" /><g
     id="XMLID_4_"
     transform="matrix(0.11524551,0,0,0.11524551,-1.438812,-5.511773)"
     style="fill:#ffffff" /><g
     id="XMLID_5_"
     transform="matrix(0.11524551,0,0,0.11524551,-1.438812,-5.511773)"
     style="fill:#ffffff" /></svg>